<svg width="100" height="50" viewBox="0 0 100 50" fill="none" xmlns="http://www.w3.org/2000/svg">
<path fill-rule="evenodd" clip-rule="evenodd" d="M100 50H0V0H100V50Z" fill="#EC1C24"/>
<path fill-rule="evenodd" clip-rule="evenodd" d="M62.8882 13.405C64.004 15.5444 64.0484 18.0841 63.008 20.2611C61.8513 22.9114 60.0595 25.2359 57.7909 27.0292C55.3783 28.979 52.7396 30.6312 49.9318 31.9499C52.403 32.8238 53.5283 34.5556 55.3292 36.2067C55.7253 36.6046 56.2988 36.7698 56.8459 36.6437C57.5241 36.3799 57.8712 35.6262 57.6307 34.9395L57.1238 33.8705L58.2088 33.3116C59.7215 34.7724 60.1245 37.0396 59.2079 38.9322C58.2103 40.2298 56.6468 40.9651 55.0111 40.9058C50.6562 40.8613 49.602 36.6225 47.4617 33.7549C47.1223 33.074 45.8867 33.0751 46.1115 32.1991C52.0636 29.2297 56.7176 23.5317 57.5003 17.3522C57.582 15.6013 57.5491 14.1951 56.6465 13.0042C55.9632 12.1701 54.987 11.6288 53.9176 11.4908C52.9171 11.3496 51.9072 11.2858 50.897 11.3C50.057 13.9279 43.0018 37.7148 43.0018 37.7148C42.8862 38.2107 43.0104 38.7322 43.3371 39.1229C43.6638 39.5136 44.1551 39.7281 44.6638 39.7021C44.5789 39.9821 44.317 40.8549 44.317 40.8549H33.642L33.975 39.7021C33.975 39.7021 34.1256 39.7085 34.3876 39.7085C35.5315 39.7583 36.545 38.9768 36.7877 37.8579C39.2207 29.6783 42.0504 20.3598 44.4973 12.1738C44.6302 11.7361 44.5563 11.2616 44.2965 10.885C44.0367 10.5084 43.6195 10.2708 43.163 10.2395H42.8194L43.162 9.09094H51.5874C51.5874 9.09094 58.6797 9.09094 61.3694 11.6542C61.9663 12.1526 62.4791 12.7437 62.8882 13.405ZM92.7273 9.09094L90.6421 16.0245H89.5317C90.343 13.3181 88.5877 11.2915 85.7209 11.2915C82.5942 11.2915 80.8135 11.3084 77.1427 11.3084L74.4498 20.2792C74.4498 20.2792 78.723 20.311 82.0947 20.2792C83.5545 20.2556 84.8715 19.3972 85.4823 18.0712H86.6001L84.3485 25.5774L83.2401 25.5647C83.4235 24.8384 83.2665 24.0682 82.8136 23.4715C82.3607 22.8749 81.661 22.5165 80.9121 22.4977H73.7817C73.7817 22.4977 70.7908 32.5618 69.5392 36.6246C69.3214 37.3758 69.4804 38.1859 69.966 38.799C70.4516 39.4122 71.2038 39.7526 71.985 39.7127C71.8673 40.0839 71.635 40.8623 71.635 40.8623H59.8485L60.1942 39.7096H60.5782C61.7192 39.7159 62.72 38.9495 63.0112 37.8463C63.3612 36.6861 70.3145 13.5609 70.7791 12.0285C70.9369 11.599 70.8626 11.1185 70.5825 10.7567C70.3023 10.3949 69.8557 10.2027 69.4003 10.2479H69.0301L69.3738 9.10155L92.7273 9.09094ZM7.1703 39.7127C9.47499 39.7127 9.92787 38.2429 10.5409 36.1537L16.912 14.9438C17.0891 14.3436 17.2301 13.8176 17.3458 13.4167C17.4847 12.9543 17.5748 12.6319 17.6639 12.3562C17.8215 11.8458 17.7213 11.2907 17.3953 10.8675C17.0692 10.4443 16.558 10.2058 16.0242 10.2278L16.3573 9.12488H25.4074C30.2862 9.12488 32.8836 10.3148 35.428 12.6934C38.021 15.1861 39.4126 18.6759 39.2462 22.2687C39.2536 27.0737 37.1967 31.6505 33.5985 34.8355C29.4133 38.7933 25.033 40.839 18.2292 40.839H6.81818L7.1703 39.7127ZM32.2292 14.2874C30.9353 12.2586 29.7114 11.2437 26.6186 11.2437C25.8837 11.1632 25.1428 11.33 24.5133 11.7178C24.1219 12.0497 23.8386 12.491 23.6998 12.9851L16.8409 35.8038C16.7817 35.9988 16.7374 36.198 16.7083 36.3998C16.6856 36.5532 16.6732 36.7081 16.6712 36.8632C16.6307 37.3644 16.8572 37.85 17.2673 38.1411C17.9342 38.4639 18.6757 38.6012 19.4139 38.5388C25.3183 38.5388 28.4291 35.7751 31.0658 30.2499C32.6592 26.9341 33.4805 23.3004 33.468 19.6217C33.5601 17.7629 33.1311 15.9154 32.2292 14.2874Z" fill="white"/>
</svg>
